When Carty meets Elvis at a Bunnymen gig, they fall headlong into a volatile friendship that each of them aches for but neither can control. Violent, sexy and funny, Awaydays is a blade-sharp rites-of-passage that buzzes with the post-punk energy of its late-70's Liverpool setting.

Based on the classic novel by Kevin Sampson, and pulsating to a soundtrack of Joy Division, The Cure, Magazine, Echo & The Bunnymen and Ultravox, Awaydays examines identity, fate, the nature of male longings and their need to belong. It is the first major feature film to be set during, and evocatively portray, the first dawning of the football casual fashion cult. Quadrophenia meets Control. Trainspotting meets Stand By Me. Awaydays is all of these - A Catcher In The Rye with switchblades.

Format : MPEG-4
Format profile : Base Media / Version 2
Codec ID : mp42
File size : 998 MiB
Duration : 1h 40mn
Overall bit rate : 1 385 Kbps
Encoded date : UTC 2009-10-08 12:04:41
Tagged date : UTC 2009-10-08 17:50:21
Writing application : HandBrake 0.9.3 2008112300

Video
ID : 1
Format : AVC
Format/Info : Advanced Video Codec
Format profile : Main@L4.0
Format settings, CABAC : Yes
Format settings, ReFrames : 3 frames
Codec ID : avc1
Codec ID/Info : Advanced Video Coding
Duration : 1h 40mn
Bit rate mode : Variable
Bit rate : 1 221 Kbps
Width : 716 pixels
Height : 552 pixels
Display aspect ratio : 16:9
Frame rate mode : Variable
Frame rate : 25.000 fps
Minimum frame rate : 12.500 fps
Maximum frame rate : 25.000 fps
Resolution : 24 bits
Colorimetry : 4:2:0
Scan type : Progressive
Bits/(Pixel*Frame) : 0.124
Stream size : 880 MiB (88%)
Writing library : x264 core 65


Audio
ID : 2
Format : AAC
Format/Info : Advanced Audio Codec
Format version : Version 4
Format profile : LC
Format settings, SBR : No
Codec ID : 40
Duration : 1h 40mn
Bit rate mode : Variable
Bit rate : 160 Kbps
Maximum bit rate : 223 Kbps
Channel(s) : 2 channels
Channel positions : L R
Sampling rate : 48.0 KHz
Resolution : 16 bits
Stream size : 115 MiB (12%)
Language : English
Encoded date : UTC 2009-10-08 12:04:41